<?xml version="1.0" encoding="UTF-8" standalone="no"?><!DOCTYPE svg PUBLIC "-//W3C//DTD SVG 1.1//EN" "http://www.w3.org/Graphics/SVG/1.1/DTD/svg11.dtd"><svg width="100%" height="100%" viewBox="0 0 255 221" version="1.1" xmlns="http://www.w3.org/2000/svg" xmlns:xlink="http://www.w3.org/1999/xlink" xml:space="preserve" xmlns:serif="http://www.serif.com/" style="fill-rule:evenodd;clip-rule:evenodd;stroke-linejoin:round;stroke-miterlimit:2;"><rect id="logos-rd-3" serif:id="logos rd 3" x="-488.719" y="12.869" width="800" height="600" style="fill:none;"/><g id="logo-2" serif:id="logo 2"></g><g id="logo-3" serif:id="logo 3"></g><g id="logo-4" serif:id="logo 4"></g><g id="logo-6" serif:id="logo 6"></g><g><circle cx="124.075" cy="85.167" r="63.836" style="fill:#1c4587;"/><path d="M150.632,104.936l-0.772,-6.41l-0.771,6.41c-0.273,2.262 -2.056,4.046 -4.319,4.318l-6.41,0.772l6.41,0.772c2.262,0.272 4.046,2.056 4.319,4.318l0.771,6.41l0.772,-6.41c0.273,-2.262 2.056,-4.046 4.319,-4.318l6.409,-0.772l-6.409,-0.772c-2.263,-0.273 -4.046,-2.056 -4.319,-4.318Z" style="fill:#fefffe;fill-rule:nonzero;"/><path d="M95.447,103.85l-0.771,-6.41l-0.772,6.41c-0.273,2.262 -2.056,4.046 -4.319,4.318l-6.409,0.772l6.409,0.772c2.263,0.272 4.046,2.056 4.319,4.319l0.772,6.409l0.771,-6.409c0.273,-2.263 2.056,-4.047 4.319,-4.319l6.41,-0.772l-6.41,-0.772c-2.263,-0.273 -4.046,-2.056 -4.319,-4.318Z" style="fill:#fefffe;fill-rule:nonzero;"/><path d="M150.997,50.405l-0.772,-6.41l-0.772,6.41c-0.272,2.262 -2.055,4.046 -4.318,4.318l-6.41,0.772l6.41,0.772c2.262,0.272 4.046,2.055 4.318,4.318l0.772,6.41l0.772,-6.41c0.272,-2.262 2.055,-4.046 4.318,-4.318l6.41,-0.772l-6.41,-0.772c-2.263,-0.273 -4.046,-2.056 -4.318,-4.318Z" style="fill:#fefffe;fill-rule:nonzero;"/><path d="M94.622,51.847l-0.772,-6.409l-0.772,6.409c-0.272,2.263 -2.055,4.046 -4.318,4.319l-6.41,0.772l6.41,0.771c2.262,0.273 4.046,2.056 4.318,4.319l0.772,6.41l0.772,-6.41c0.272,-2.262 2.055,-4.046 4.318,-4.319l6.41,-0.771l-6.41,-0.772c-2.263,-0.273 -4.046,-2.056 -4.318,-4.319Z" style="fill:#fefffe;fill-rule:nonzero;"/><g transform="matrix(1,0,0,1,-164.356,-34.0867)"><text x="233.193px" y="217.549px" style="font-family:'Barlow-Bold', 'Barlow';font-weight:700;font-size:30px;fill:#903636;">StarMark</text><text x="167.853px" y="246.549px" style="font-family:'Barlow-Bold', 'Barlow';font-weight:700;font-size:30px;fill:#903636;">Business Solutions</text></g><path d="M142.781,91.994l25.132,-3.027l-25.132,-3.027c-8.871,-1.068 -15.864,-8.061 -16.932,-16.933l-3.027,-25.131l-3.027,25.131c-1.068,8.871 -8.061,15.864 -16.932,16.933l-25.131,3.027l25.131,3.027c8.871,1.068 15.864,8.061 16.932,16.933l3.027,25.131l3.026,-25.131c1.069,-8.872 8.062,-15.864 16.933,-16.933Z" style="fill:#d0ab1e;fill-rule:nonzero;"/></g></svg>