<?xml version="1.0" encoding="UTF-8" standalone="no"?><!DOCTYPE svg PUBLIC "-//W3C//DTD SVG 1.1//EN" "http://www.w3.org/Graphics/SVG/1.1/DTD/svg11.dtd"><svg width="100%" height="100%" viewBox="0 0 221 107" version="1.1" xmlns="http://www.w3.org/2000/svg" xmlns:xlink="http://www.w3.org/1999/xlink" xml:space="preserve" xmlns:serif="http://www.serif.com/" style="fill-rule:evenodd;clip-rule:evenodd;stroke-linejoin:round;stroke-miterlimit:2;"><g id="triStarUpperRightGreenLettersLogo"><g transform="matrix(1,0,0,1,-166.866,-145.975)"><path d="M184.631,217.674l0,-10.575l-1.925,0l0,-2.5l1.925,0l0,-4.3l2.825,0l0,4.3l3.05,0l0,2.5l-3.05,0l0,10.575l-2.825,0Z" style="fill:#134f5c;stroke:#134f5c;stroke-width:1px;"/><path d="M200.681,217.674l0,-1.9c-0.534,0.733 -1.204,1.275 -2.013,1.625c-0.808,0.35 -1.679,0.525 -2.612,0.525c-0.634,0 -1.221,-0.104 -1.763,-0.313c-0.541,-0.208 -1.008,-0.495 -1.4,-0.862c-0.391,-0.367 -0.7,-0.8 -0.925,-1.3c-0.225,-0.5 -0.337,-1.042 -0.337,-1.625c0,-0.683 0.154,-1.283 0.462,-1.8c0.309,-0.517 0.721,-0.946 1.238,-1.288c0.516,-0.341 1.108,-0.6 1.775,-0.775c0.666,-0.175 1.35,-0.262 2.05,-0.262c0.783,0 1.471,0.062 2.062,0.187c0.592,0.125 1.054,0.263 1.388,0.413l0,-0.9c0,-0.95 -0.275,-1.7 -0.825,-2.25c-0.55,-0.55 -1.342,-0.825 -2.375,-0.825c-0.7,0 -1.388,0.129 -2.063,0.387c-0.675,0.259 -1.371,0.63 -2.087,1.113l-0.85,-1.75c0.783,-0.517 1.608,-0.929 2.475,-1.238c0.866,-0.308 1.791,-0.462 2.775,-0.462c1.85,0 3.262,0.475 4.237,1.425c0.975,0.95 1.463,2.25 1.463,3.9l0,7.975l-2.675,0Zm-0.6,-3.15c0.35,-0.317 0.525,-0.633 0.525,-0.95l0,-1.725c-1,-0.383 -2.009,-0.575 -3.025,-0.575c-0.4,0 -0.8,0.046 -1.2,0.137c-0.4,0.092 -0.759,0.234 -1.075,0.425c-0.317,0.192 -0.575,0.434 -0.775,0.725c-0.2,0.292 -0.3,0.638 -0.3,1.038c0,0.333 0.066,0.642 0.2,0.925c0.133,0.283 0.321,0.525 0.562,0.725c0.242,0.2 0.517,0.358 0.825,0.475c0.309,0.117 0.638,0.175 0.988,0.175c0.583,0 1.187,-0.113 1.812,-0.338c0.625,-0.225 1.113,-0.57 1.463,-1.037Z" style="fill:#134f5c;stroke:#134f5c;stroke-width:1px;"/><path d="M245.706,217.674l0,-1.9c-0.534,0.733 -1.204,1.275 -2.013,1.625c-0.808,0.35 -1.679,0.525 -2.612,0.525c-0.634,0 -1.221,-0.104 -1.763,-0.313c-0.541,-0.208 -1.008,-0.495 -1.4,-0.862c-0.391,-0.367 -0.7,-0.8 -0.925,-1.3c-0.225,-0.5 -0.337,-1.042 -0.337,-1.625c0,-0.683 0.154,-1.283 0.462,-1.8c0.309,-0.517 0.721,-0.946 1.238,-1.288c0.516,-0.341 1.108,-0.6 1.775,-0.775c0.666,-0.175 1.35,-0.262 2.05,-0.262c0.783,0 1.471,0.062 2.062,0.187c0.592,0.125 1.054,0.263 1.388,0.413l0,-0.9c0,-0.95 -0.275,-1.7 -0.825,-2.25c-0.55,-0.55 -1.342,-0.825 -2.375,-0.825c-0.7,0 -1.388,0.129 -2.063,0.387c-0.675,0.259 -1.371,0.63 -2.087,1.113l-0.85,-1.75c0.783,-0.517 1.608,-0.929 2.475,-1.238c0.866,-0.308 1.791,-0.462 2.775,-0.462c1.85,0 3.262,0.475 4.237,1.425c0.975,0.95 1.463,2.25 1.463,3.9l0,7.975l-2.675,0Zm-0.6,-3.15c0.35,-0.317 0.525,-0.633 0.525,-0.95l0,-1.725c-1,-0.383 -2.009,-0.575 -3.025,-0.575c-0.4,0 -0.8,0.046 -1.2,0.137c-0.4,0.092 -0.759,0.234 -1.075,0.425c-0.317,0.192 -0.575,0.434 -0.775,0.725c-0.2,0.292 -0.3,0.638 -0.3,1.038c0,0.333 0.066,0.642 0.2,0.925c0.133,0.283 0.321,0.525 0.562,0.725c0.242,0.2 0.517,0.358 0.825,0.475c0.309,0.117 0.638,0.175 0.988,0.175c0.583,0 1.187,-0.113 1.812,-0.338c0.625,-0.225 1.113,-0.57 1.463,-1.037Z" style="fill:#134f5c;stroke:#134f5c;stroke-width:1px;"/><text x="166.756px" y="217.674px" style="font-family:'Raleway-SemiBold', 'Raleway', sans-serif;font-weight:600;font-size:25px;fill:#134f5c;stroke:#134f5c;stroke-width:1px;">S<tspan x="204.856px 214.206px 249.881px " y="217.674px 217.674px 217.674px ">rMr</tspan>k</text><rect x="310.156" y="233.424" width="2.75" height="18.25" style="fill:#134f5c;stroke:#134f5c;stroke-width:1px;"/><path d="M332.481,251.674l0,-10.575l-1.925,0l0,-2.5l1.925,0l0,-4.3l2.825,0l0,4.3l3.05,0l0,2.5l-3.05,0l0,10.575l-2.825,0Z" style="fill:#134f5c;stroke:#134f5c;stroke-width:1px;"/><text x="166.756px" y="251.674px" style="font-family:'Raleway-SemiBold', 'Raleway', sans-serif;font-weight:600;font-size:25px;fill:#134f5c;stroke:#134f5c;stroke-width:1px;">Business So<tspan x="314.656px 338.781px " y="251.674px 251.674px ">ui</tspan>ons</text></g><g><path d="M185.381,38.283l19.579,-2.358l-19.579,-2.358c-6.911,-0.832 -12.359,-6.28 -13.191,-13.192l-2.359,-19.579l-2.358,19.579c-0.832,6.911 -6.28,12.359 -13.191,13.192l-19.579,2.358l19.579,2.358c6.911,0.832 12.359,6.28 13.191,13.192l2.358,19.579l2.358,-19.579c0.833,-6.912 6.281,-12.359 13.192,-13.192Z" style="fill:#b24040;fill-rule:nonzero;"/><path d="M185.196,38.146l19.507,-2.35l-19.507,-2.349c-6.886,-0.829 -12.314,-6.257 -13.143,-13.144l-2.35,-19.507l-2.35,19.507c-0.829,6.886 -6.257,12.314 -13.142,13.144l-19.508,2.349l19.508,2.35c6.885,0.829 12.313,6.256 13.142,13.143l2.35,19.507l2.349,-19.507c0.83,-6.887 6.258,-12.314 13.144,-13.143Z" style="fill:#b24040;fill-rule:nonzero;"/><path d="M147.458,53.342l-1.343,-11.148l-1.342,11.148c-0.474,3.934 -3.575,7.036 -7.51,7.51l-11.148,1.342l11.148,1.343c3.934,0.473 7.036,3.574 7.51,7.51l1.342,11.147l1.343,-11.147c0.473,-3.935 3.575,-7.037 7.51,-7.51l11.147,-1.343l-11.147,-1.342c-3.935,-0.475 -7.037,-3.576 -7.51,-7.51Z" style="fill:#b24040;fill-opacity:0.8;fill-rule:nonzero;"/><path d="M195.892,57.466l-1.477,-12.262l-1.477,12.262c-0.521,4.328 -3.933,7.74 -8.261,8.261l-12.262,1.477l12.262,1.477c4.328,0.522 7.74,3.933 8.261,8.262l1.477,12.261l1.477,-12.261c0.522,-4.329 3.933,-7.74 8.262,-8.262l12.261,-1.477l-12.261,-1.477c-4.329,-0.521 -7.74,-3.933 -8.262,-8.261Z" style="fill:#b24040;fill-opacity:0.6;fill-rule:nonzero;"/></g></g></svg>