<?xml version="1.0" encoding="UTF-8" standalone="no"?><!DOCTYPE svg PUBLIC "-//W3C//DTD SVG 1.1//EN" "http://www.w3.org/Graphics/SVG/1.1/DTD/svg11.dtd"><svg width="100%" height="100%" viewBox="0 0 378 89" version="1.1" xmlns="http://www.w3.org/2000/svg" xmlns:xlink="http://www.w3.org/1999/xlink" xml:space="preserve" xmlns:serif="http://www.serif.com/" style="fill-rule:evenodd;clip-rule:evenodd;stroke-linejoin:round;stroke-miterlimit:2;"><g id="triStarLeftBlueLettersLogo"><g transform="matrix(1,0,0,1,-56.7892,-172.532)"><text x="166.756px" y="217.549px" style="font-family:'Play-Bold', 'Play';font-weight:700;font-size:30px;fill:#1c4587;">StarMark</text><text x="166.756px" y="243.549px" style="font-family:'Play-Bold', 'Play';font-weight:700;font-size:30px;fill:#1c4587;">Business Solutions</text></g><g><path d="M59.411,37.358l19.507,-2.349l-19.507,-2.35c-6.886,-0.829 -12.314,-6.257 -13.143,-13.144l-2.35,-19.507l-2.349,19.507c-0.829,6.886 -6.257,12.314 -13.143,13.144l-19.508,2.35l19.508,2.349c6.886,0.829 12.314,6.257 13.143,13.144l2.349,19.507l2.349,-19.507c0.83,-6.887 6.258,-12.314 13.144,-13.144Z" style="fill:#b24040;fill-rule:nonzero;"/><path d="M22.067,52.553l-1.367,-11.147l-1.367,11.147c-0.482,3.935 -3.641,7.037 -7.649,7.511l-11.354,1.342l11.354,1.342c4.007,0.474 7.167,3.575 7.649,7.511l1.367,11.147l1.367,-11.147c0.483,-3.935 3.641,-7.037 7.649,-7.511l11.354,-1.342l-11.354,-1.342c-4.008,-0.475 -7.166,-3.576 -7.649,-7.511Z" style="fill:#b24040;fill-rule:nonzero;"/><path d="M70.108,56.678l-1.478,-12.262l-1.477,12.262c-0.521,4.328 -3.932,7.739 -8.261,8.261l-12.262,1.477l12.262,1.477c4.329,0.522 7.74,3.933 8.261,8.261l1.477,12.262l1.478,-12.262c0.521,-4.328 3.932,-7.739 8.261,-8.261l12.261,-1.477l-12.261,-1.477c-4.329,-0.522 -7.74,-3.933 -8.261,-8.261Z" style="fill:#b24040;fill-rule:nonzero;"/></g></g></svg>