<?xml version="1.0" encoding="UTF-8" standalone="no"?><!DOCTYPE svg PUBLIC "-//W3C//DTD SVG 1.1//EN" "http://www.w3.org/Graphics/SVG/1.1/DTD/svg11.dtd"><svg width="100%" height="100%" viewBox="0 0 267 106" version="1.1" xmlns="http://www.w3.org/2000/svg" xmlns:xlink="http://www.w3.org/1999/xlink" xml:space="preserve" xmlns:serif="http://www.serif.com/" style="fill-rule:evenodd;clip-rule:evenodd;stroke-linejoin:round;stroke-miterlimit:2;"><g id="triStarUpperRightBlueLettersLogo"><g transform="matrix(1,0,0,1,-167.412,-138.543)"><text x="166.756px" y="217.549px" style="font-family:'Play-Bold', 'Play';font-weight:700;font-size:30px;fill:#1c4587;">StarMark</text><text x="166.756px" y="243.549px" style="font-family:'Play-Bold', 'Play';font-weight:700;font-size:30px;fill:#1c4587;">Business Solutions</text></g><g><path d="M213.553,38.233l19.507,-2.349l-19.507,-2.349c-6.886,-0.829 -12.314,-6.258 -13.143,-13.144l-2.35,-19.508l-2.35,19.508c-0.829,6.885 -6.257,12.314 -13.142,13.144l-19.508,2.349l19.508,2.349c6.885,0.829 12.313,6.257 13.142,13.144l2.35,19.507l2.349,-19.507c0.83,-6.887 6.258,-12.314 13.144,-13.144Z" style="fill:#b24040;fill-rule:nonzero;"/><path d="M175.815,53.429l-1.343,-11.148l-1.342,11.148c-0.474,3.934 -3.575,7.036 -7.51,7.51l-11.148,1.342l11.148,1.343c3.934,0.473 7.036,3.575 7.51,7.51l1.342,11.147l1.343,-11.147c0.473,-3.934 3.574,-7.037 7.51,-7.51l11.147,-1.343l-11.147,-1.342c-3.936,-0.475 -7.037,-3.576 -7.51,-7.51Z" style="fill:#b24040;fill-rule:nonzero;"/><path d="M224.249,57.553l-1.477,-12.262l-1.477,12.262c-0.521,4.328 -3.933,7.74 -8.261,8.261l-12.262,1.477l12.262,1.477c4.328,0.522 7.74,3.933 8.261,8.262l1.477,12.261l1.477,-12.261c0.522,-4.329 3.933,-7.74 8.262,-8.262l12.261,-1.477l-12.261,-1.477c-4.329,-0.521 -7.74,-3.933 -8.262,-8.261Z" style="fill:#b24040;fill-rule:nonzero;"/></g></g></svg>